<svg width="211" height="30" viewBox="0 0 211 30" fill="none" xmlns="http://www.w3.org/2000/svg">
<path d="M19.2454 11.0994V2.39687C19.2454 1.77787 18.9919 1.18423 18.5407 0.74653C18.0896 0.308833 17.4777 0.0629378 16.8396 0.0629378C16.2015 0.0629378 15.5896 0.308833 15.1385 0.74653C14.6873 1.18423 14.4338 1.77787 14.4338 2.39687V11.0994H4.81069V2.39687C4.81936 2.08519 4.76356 1.77498 4.6466 1.48456C4.52964 1.19415 4.35389 0.929415 4.12971 0.705991C3.90554 0.482567 3.63749 0.304984 3.3414 0.183727C3.04531 0.0624691 2.72717 0 2.40578 0C2.08439 0 1.76626 0.0624691 1.47016 0.183727C1.17407 0.304984 0.906028 0.482567 0.681854 0.705991C0.457681 0.929415 0.281925 1.19415 0.164964 1.48456C0.0480034 1.77498 -0.00779163 2.08519 0.000874877 2.39687V20.6983C0.101371 23.1069 1.15836 25.3845 2.95057 27.0542C4.74279 28.7239 7.1313 29.6564 9.61613 29.6564C12.101 29.6564 14.4895 28.7239 16.2817 27.0542C18.0739 25.3845 19.1309 23.1069 19.2314 20.6983V11.0994H19.2454Z" fill="#70C0B2"/>
<path d="M11.2163 25.726C11.2163 25.726 12.3816 27.2536 13.7201 26.4168C15.0586 25.58 14.1068 23.9216 14.1068 23.9216" fill="#EB5C5B"/>
<path d="M9.72211 26.2029C6.65845 26.2029 5.10475 24.1355 4.71108 23.0424C4.65632 22.8902 4.66612 22.7232 4.7383 22.578C4.81049 22.4329 4.93916 22.3215 5.09601 22.2684C5.25285 22.2152 5.42502 22.2247 5.57465 22.2948C5.72427 22.3648 5.8391 22.4896 5.89385 22.6418C5.92884 22.7351 6.80192 24.9893 9.72211 24.9893C12.6423 24.9893 13.3369 22.691 13.3422 22.6672C13.3869 22.5119 13.4935 22.3802 13.6383 22.3011C13.7832 22.222 13.9545 22.202 14.1146 22.2454C14.2747 22.2889 14.4105 22.3922 14.492 22.5328C14.5735 22.6733 14.5942 22.8395 14.5494 22.9948C14.2292 24.1049 12.8085 26.2029 9.72211 26.2029Z" fill="black"/>
<path d="M25.1681 25.3101V29.9169H24.6327V29.5689H24.5015C24.3776 29.7121 24.2212 29.8254 24.0445 29.8999C23.8677 29.9745 23.6756 30.0082 23.4832 29.9983C22.5681 29.9983 22.0205 29.2701 22.0205 28.3196C22.0205 27.3691 22.5681 26.6409 23.4832 26.6409C23.6731 26.6297 23.8631 26.6631 24.037 26.7381C24.2109 26.8131 24.3636 26.9277 24.4822 27.072H24.6135V25.3101H25.1681ZM24.6187 28.3196C24.6187 27.6933 24.3195 27.1094 23.5882 27.1094C22.9215 27.1094 22.5751 27.6186 22.5751 28.3196C22.5751 29.0206 22.925 29.5299 23.5882 29.5299C24.3195 29.5299 24.6187 28.9408 24.6187 28.3196Z" fill="white"/>
<path d="M27.4479 25.9449V25.3101H28.0865V25.9449H27.4479ZM28.041 29.9169H27.4864V26.7241H28.041V29.9169Z" fill="white"/>
<path d="M31.941 28.048C32.5412 28.1482 32.9069 28.4214 32.9069 29.0037C32.9069 29.5231 32.4379 29.9983 31.5561 29.9983C30.634 29.9983 30.1774 29.6062 30.0934 28.9986H30.648C30.7198 29.3584 31.0522 29.5299 31.5229 29.5299C31.9935 29.5299 32.3452 29.3601 32.3452 29.0206C32.3452 28.7355 32.1702 28.5895 31.7381 28.5114L31.0785 28.3977C30.5746 28.3094 30.2229 28.0752 30.2229 27.5863C30.2229 27.0601 30.641 26.6426 31.5159 26.6426C32.2735 26.6426 32.7406 27.0109 32.8089 27.5558H32.2665C32.228 27.2502 31.8693 27.1111 31.4896 27.1111C31.1099 27.1111 30.7898 27.257 30.7898 27.5422C30.7898 27.7832 30.9525 27.8817 31.3147 27.9411L31.941 28.048Z" fill="white"/>
<path d="M36.7089 26.724V27.1925H35.82V28.9595C35.82 29.2769 35.9635 29.4348 36.4009 29.4348H36.7089V29.9169H36.3589C35.6398 29.9169 35.2619 29.7386 35.2619 29.0682V27.1925H34.5953V26.724H35.2619V25.765H35.8165V26.7291L36.7089 26.724Z" fill="white"/>
<path d="M40.7051 27.2299H40.4514C39.804 27.2299 39.4121 27.6237 39.4121 28.3196V29.9169H38.8574V26.724H39.3928V27.1093H39.5241C39.643 26.9798 39.7905 26.8779 39.9556 26.8112C40.1206 26.7445 40.2991 26.7147 40.4776 26.724H40.7051V27.2299Z" fill="white"/>
<path d="M42.6385 25.9449V25.3101H43.2788V25.9449H42.6385ZM43.2333 29.9169H42.6787V26.7241H43.2333V29.9169Z" fill="white"/>
<path d="M46.1133 25.3101V27.072H46.2445C46.363 26.9275 46.5157 26.8128 46.6896 26.7377C46.8635 26.6627 47.0536 26.6294 47.2436 26.6409C48.1569 26.6409 48.7063 27.364 48.7063 28.3196C48.7063 29.2752 48.1569 29.9983 47.2436 29.9983C47.0511 30.0082 46.859 29.9745 46.6823 29.8999C46.5056 29.8254 46.3491 29.7121 46.2253 29.5689H46.0888V29.9169H45.5639V25.3101H46.1133ZM48.1516 28.3196C48.1516 27.6101 47.8017 27.1094 47.1386 27.1094C46.4072 27.1094 46.1063 27.6933 46.1063 28.3196C46.1063 28.9459 46.4072 29.5299 47.1386 29.5299C47.8052 29.5299 48.1516 29.0291 48.1516 28.3196Z" fill="white"/>
<path d="M50.7569 28.7321V26.7241H51.3115V28.637C51.3115 29.2192 51.5862 29.518 52.1409 29.518C52.7287 29.518 53.1084 29.0087 53.1084 28.4588V26.7241H53.6631V29.9169H53.1277V29.5689H53.0034C52.8896 29.7101 52.7424 29.8229 52.5744 29.8976C52.4063 29.9723 52.2223 30.0068 52.0376 29.9983C51.2135 29.9983 50.7569 29.4993 50.7569 28.7321Z" fill="white"/>
<path d="M57.7188 26.724V27.1925H56.8317V28.9595C56.8317 29.2769 56.9752 29.4348 57.4126 29.4348H57.7188V29.9169H57.3688C56.6515 29.9169 56.2718 29.7386 56.2718 29.0682V27.1925H55.6069V26.724H56.2718V25.765H56.8282V26.7291L57.7188 26.724Z" fill="white"/>
<path d="M59.8411 25.9449V25.3101H60.4815V25.9449H59.8411ZM60.436 29.9169H59.8814V26.7241H60.436V29.9169Z" fill="white"/>
<path d="M65.7987 28.3196C65.7987 29.2701 65.2038 29.9983 64.1785 29.9983C63.1532 29.9983 62.5583 29.2701 62.5583 28.3196C62.5583 27.3691 63.1462 26.6409 64.1785 26.6409C65.2108 26.6409 65.7987 27.3691 65.7987 28.3196ZM65.2423 28.3196C65.2423 27.6984 64.9029 27.1094 64.1785 27.1094C63.4542 27.1094 63.1147 27.6984 63.1147 28.3196C63.1147 28.9408 63.4472 29.5299 64.1785 29.5299C64.9099 29.5299 65.2423 28.9476 65.2423 28.3196Z" fill="white"/>
<path d="M70.8272 27.9088V29.9169H70.2726V28.0039C70.2726 27.42 69.9839 27.1229 69.4293 27.1229C68.8414 27.1229 68.4565 27.6322 68.4565 28.1804V29.9169H67.9018V26.7241H68.4372V27.072H68.5614C68.6763 26.93 68.8246 26.8168 68.9938 26.7418C69.1631 26.6668 69.3484 26.6322 69.5342 26.6409C70.3566 26.6409 70.8272 27.1416 70.8272 27.9088Z" fill="white"/>
<path d="M36.7456 0.758874H25.3413C25.0271 0.755502 24.7154 0.813217 24.4245 0.928614C24.1472 1.04165 23.8952 1.20597 23.6826 1.41238C23.4674 1.62155 23.2973 1.87026 23.1822 2.14396C23.0652 2.42195 23.0058 2.71955 23.0073 3.01982V19.6204C23.0073 20.2214 23.2534 20.7978 23.6914 21.2227C24.1295 21.6477 24.7236 21.8865 25.3431 21.8865C25.9626 21.8865 26.5567 21.6477 26.9947 21.2227C27.4328 20.7978 27.6789 20.2214 27.6789 19.6204V13.5912H33.8989C34.5184 13.5912 35.1125 13.3525 35.5506 12.9275C35.9886 12.5026 36.2347 11.9262 36.2347 11.3252C36.2347 10.7242 35.9886 10.1478 35.5506 9.72288C35.1125 9.29792 34.5184 9.05918 33.8989 9.05918H27.6771V5.29094H36.7456C37.3651 5.29094 37.9592 5.0522 38.3973 4.62723C38.8353 4.20227 39.0814 3.6259 39.0814 3.02491C39.0814 2.42392 38.8353 1.84755 38.3973 1.42259C37.9592 0.997621 37.3651 0.758874 36.7456 0.758874Z" fill="white"/>
<path d="M45.2664 21.8915C45.8859 21.8915 46.4801 21.6528 46.9181 21.2278C47.3562 20.8029 47.6022 20.2265 47.6022 19.6255V3.01981C47.6022 2.72223 47.5418 2.42757 47.4244 2.15264C47.3071 1.87771 47.135 1.6279 46.9181 1.41748C46.7012 1.20706 46.4437 1.04015 46.1603 0.926268C45.8769 0.812389 45.5732 0.753782 45.2664 0.753782C44.9597 0.753782 44.656 0.812389 44.3726 0.926268C44.0892 1.04015 43.8317 1.20706 43.6148 1.41748C43.3979 1.6279 43.2258 1.87771 43.1085 2.15264C42.9911 2.42757 42.9307 2.72223 42.9307 3.01981V19.6204C42.9307 20.2214 43.1767 20.7978 43.6148 21.2227C44.0528 21.6477 44.6469 21.8864 45.2664 21.8864V21.8915Z" fill="white"/>
<path d="M64.1785 12.4064C63.8181 11.5815 63.183 10.7871 62.2347 9.97747C61.2863 9.1678 60.0213 8.55504 58.4379 8.11032C57.5543 7.8642 57.2131 7.61638 57.0907 7.48908C57.0312 7.42967 56.8509 7.24635 56.8509 6.72694C56.8483 6.54354 56.8883 6.36192 56.9682 6.19566C57.0535 6.0181 57.1722 5.8575 57.3181 5.72207C57.4577 5.5915 57.6208 5.4868 57.7993 5.41315C57.9583 5.34404 58.1306 5.30819 58.3049 5.30791C58.5448 5.3058 58.7828 5.35024 59.0048 5.43861C59.1492 5.4931 59.2739 5.58753 59.3635 5.71019C59.4824 5.87993 59.5997 6.03609 59.7134 6.16679C59.8399 6.32392 59.981 6.46938 60.1351 6.60133C60.3279 6.76643 60.5495 6.89691 60.7894 6.98664C61.0475 7.08169 61.3217 7.1289 61.5978 7.12583C61.9073 7.12762 62.2142 7.06993 62.5006 6.95609C63.0671 6.731 63.5183 6.29692 63.7551 5.74924C63.8744 5.46716 63.9339 5.16467 63.9301 4.8598C63.934 4.44297 63.8228 4.03271 63.6081 3.67162L63.5889 3.63937C63.2916 3.17686 62.9347 2.75303 62.5268 2.37819C62.1415 2.02436 61.7111 1.71976 61.2461 1.47178C60.7935 1.23005 60.3107 1.04579 59.8096 0.923522C59.3251 0.805114 58.8274 0.74469 58.3277 0.743598C56.8055 0.743598 55.3655 1.134 54.3244 2.18469C53.9238 2.59037 53.1924 3.32705 52.8757 3.93641C52.8285 4.02807 52.7795 4.11803 52.7357 4.20969C52.3607 5.00861 52.1719 5.87797 52.1828 6.7558C52.1771 7.51159 52.3258 8.26099 52.6203 8.96072C52.9725 9.73578 53.4957 10.4264 54.153 10.984C54.8843 11.6375 55.9026 12.1434 57.2534 12.5338C58.3854 12.8614 58.9295 13.172 59.1867 13.3825C59.4591 13.5572 59.68 13.7975 59.8281 14.0798C59.9762 14.3621 60.0464 14.6768 60.0318 14.9933C60.0347 15.3086 59.971 15.6211 59.8446 15.9116C59.6012 16.4827 59.138 16.9393 58.5534 17.1846C58.2684 17.3083 57.9592 17.3708 57.647 17.368C57.2293 17.372 56.8169 17.2758 56.4468 17.0879C56.0776 16.8951 55.767 16.6118 55.5457 16.2663C55.3424 15.9387 55.0534 15.6689 54.708 15.4844C54.3627 15.2999 53.9732 15.2072 53.5791 15.2156C53.2643 15.2121 52.9519 15.2698 52.6605 15.3854C52.0968 15.6158 51.6502 16.0534 51.4183 16.6024C51.3019 16.8806 51.2425 17.1781 51.2433 17.4783C51.2381 17.9617 51.3953 18.4336 51.6912 18.8226C52.024 19.3042 52.4185 19.7428 52.8652 20.1279C53.3113 20.5113 53.8051 20.8392 54.3349 21.1039C54.8508 21.3612 55.3956 21.5594 55.9586 21.6946C56.5151 21.8279 57.0861 21.8957 57.6593 21.8966C59.3356 21.903 60.957 21.3171 62.2206 20.2485C62.6668 19.8835 63.4139 18.9584 63.7586 18.4882C64.476 17.5122 64.7034 16.2714 64.7034 14.9424C64.7064 14.0714 64.5278 13.2088 64.1785 12.4064Z" fill="white"/>
<path d="M69.9524 21.8915C70.2593 21.892 70.5632 21.8337 70.8468 21.72C71.1304 21.6062 71.3881 21.4393 71.6051 21.2288C71.8221 21.0183 71.9941 20.7683 72.1113 20.4932C72.2285 20.2181 72.2887 19.9232 72.2882 19.6255V13.5912H79.0209V19.6255C79.0209 20.2265 79.267 20.8029 79.705 21.2278C80.1431 21.6528 80.7372 21.8915 81.3567 21.8915C81.9762 21.8915 82.5703 21.6528 83.0083 21.2278C83.4464 20.8029 83.6925 20.2265 83.6925 19.6255V3.01981C83.6925 2.41882 83.4464 1.84245 83.0083 1.41748C82.5703 0.992519 81.9762 0.753782 81.3567 0.753782C80.7372 0.753782 80.1431 0.992519 79.705 1.41748C79.267 1.84245 79.0209 2.41882 79.0209 3.01981V9.05408H72.2882V3.01981C72.2882 2.41882 72.0421 1.84245 71.604 1.41748C71.166 0.992519 70.5719 0.753782 69.9524 0.753782C69.3329 0.753782 68.7388 0.992519 68.3007 1.41748C67.8627 1.84245 67.6166 2.41882 67.6166 3.01981V19.6204C67.6166 20.2214 67.8627 20.7978 68.3007 21.2227C68.7388 21.6477 69.3329 21.8864 69.9524 21.8864V21.8915Z" fill="white"/>
<path d="M91.3385 19.6255V14.1191L91.9299 13.5437L97.5428 20.9291C97.7574 21.2337 98.0473 21.4812 98.3859 21.6491C98.7246 21.8169 99.1012 21.8997 99.4814 21.8898C99.8086 21.8913 100.132 21.8217 100.428 21.6861C100.835 21.4956 101.179 21.1979 101.42 20.827C101.662 20.456 101.791 20.0268 101.793 19.5882C101.792 19.1211 101.638 18.6665 101.354 18.2896L95.2735 10.2966L101.109 4.62725C101.328 4.41811 101.501 4.1683 101.619 3.89272C101.736 3.61714 101.795 3.32143 101.793 3.02321C101.794 2.7235 101.735 2.42644 101.618 2.14904C101.503 1.87405 101.333 1.62424 101.117 1.41455C100.901 1.20486 100.643 1.03959 100.36 0.928609C99.9265 0.754779 99.4495 0.710377 98.9901 0.801097C98.5306 0.891817 98.1095 1.11353 97.7807 1.43783L91.3402 7.68767V3.01981C91.3402 2.41882 91.0941 1.84245 90.6561 1.41748C90.2181 0.992519 89.624 0.753782 89.0045 0.753782C88.385 0.753782 87.7908 0.992519 87.3528 1.41748C86.9148 1.84245 86.6687 2.41882 86.6687 3.01981V19.6204C86.6687 20.2214 86.9148 20.7978 87.3528 21.2227C87.7908 21.6477 88.385 21.8864 89.0045 21.8864C89.624 21.8864 90.2181 21.6477 90.6561 21.2227C91.0941 20.7978 91.3402 20.2214 91.3402 19.6204L91.3385 19.6255Z" fill="white"/>
<path d="M109.601 1.42256C109.275 1.1071 108.859 0.89239 108.407 0.805454C107.955 0.718519 107.487 0.763236 107.061 0.933982C106.635 1.10473 106.271 1.39388 106.014 1.76503C105.757 2.13618 105.619 2.57275 105.617 3.01981V19.6204C105.617 20.2214 105.864 20.7978 106.302 21.2227C106.74 21.6477 107.334 21.8864 107.953 21.8864C108.573 21.8864 109.167 21.6477 109.605 21.2227C110.043 20.7978 110.289 20.2214 110.289 19.6204V3.01981C110.291 2.72247 110.23 2.42787 110.112 2.15349C109.994 1.87912 109.82 1.63056 109.601 1.42256Z" fill="white"/>
<path d="M137.439 0.393935H126.036C125.574 0.388803 125.12 0.518609 124.735 0.766506C124.35 1.0144 124.05 1.36893 123.875 1.7841C123.759 2.06227 123.699 2.35976 123.7 2.65996V19.2606C123.7 19.8616 123.946 20.4379 124.384 20.8629C124.822 21.2879 125.417 21.5266 126.036 21.5266C126.655 21.5266 127.25 21.2879 127.688 20.8629C128.126 20.4379 128.372 19.8616 128.372 19.2606V13.2263H134.592C135.211 13.2263 135.805 12.9875 136.243 12.5626C136.682 12.1376 136.928 11.5613 136.928 10.9603C136.928 10.3593 136.682 9.7829 136.243 9.35794C135.805 8.93298 135.211 8.69423 134.592 8.69423H128.372V4.92599H137.439C138.058 4.92599 138.652 4.68726 139.09 4.26229C139.528 3.83733 139.774 3.26095 139.774 2.65996C139.774 2.05897 139.528 1.4826 139.09 1.05764C138.652 0.632672 138.058 0.393935 137.439 0.393935Z" fill="white"/>
<path d="M207.805 3.49678C206.807 2.49852 205.609 1.70841 204.285 1.17488C202.962 0.641339 201.539 0.375603 200.106 0.39393H196.309C195.992 0.393287 195.677 0.456267 195.386 0.578941C195.117 0.690738 194.873 0.848908 194.663 1.04573C194.441 1.2556 194.264 1.50664 194.144 1.78394C194.024 2.06123 193.962 2.35913 193.963 2.65996V19.2606C193.962 19.5682 194.026 19.8728 194.152 20.1551C194.273 20.4251 194.447 20.6696 194.665 20.8748C194.875 21.0711 195.12 21.2292 195.387 21.3416C195.679 21.4644 195.993 21.5274 196.311 21.5266H200.108C202.996 21.5248 205.765 20.411 207.807 18.4298C209.85 16.4486 210.998 13.7621 210.999 10.9603C211.014 9.56752 210.741 8.18605 210.198 6.89668C209.636 5.623 208.823 4.46807 207.805 3.49678ZM198.659 16.9945V4.92599H200.12C201.767 4.9349 203.344 5.57352 204.508 6.70324C205.673 7.83295 206.331 9.36263 206.34 10.9603C206.351 11.7557 206.197 12.5452 205.889 13.2823C205.564 14.0124 205.095 14.6738 204.508 15.2292C203.941 15.802 203.258 16.2545 202.501 16.5583C201.745 16.8622 200.932 17.0107 200.113 16.9945H198.659Z" fill="white"/>
<path d="M191.584 19.5355V19.4965C191.593 19.4136 191.597 19.3303 191.598 19.247V2.64638C191.598 2.3488 191.537 2.05413 191.42 1.77921C191.302 1.50428 191.13 1.25447 190.913 1.04405C190.696 0.833631 190.439 0.666716 190.156 0.552837C189.872 0.438958 189.568 0.380351 189.262 0.380351C189.228 0.380351 189.197 0.380351 189.165 0.380351H170.49C170.455 0.380351 170.421 0.380351 170.386 0.380351C170.351 0.380351 170.323 0.380351 170.29 0.380351C169.983 0.380351 169.68 0.438958 169.396 0.552837C169.113 0.666716 168.855 0.833631 168.638 1.04405C168.422 1.25447 168.25 1.50428 168.132 1.77921C168.015 2.05413 167.954 2.3488 167.954 2.64638V19.247C167.954 19.247 167.954 19.247 167.954 19.2606C167.954 19.2741 167.954 19.2691 167.954 19.2724C167.955 19.4718 167.984 19.6701 168.042 19.8614L168.058 19.9209L168.079 19.9803C168.194 20.3079 168.385 20.6053 168.638 20.8493C168.987 21.1924 169.442 21.4153 169.933 21.4842C170.116 21.5204 170.303 21.5386 170.49 21.5385H189.059C189.244 21.5384 189.428 21.5207 189.61 21.4859C190.075 21.4179 190.508 21.2148 190.851 20.9033C191.195 20.5918 191.433 20.1865 191.535 19.7409C191.535 19.7409 191.535 19.7257 191.535 19.7172C191.566 19.6544 191.575 19.5966 191.584 19.5355ZM172.633 4.91242H186.936V17.0064H172.638L172.633 4.91242Z" fill="white"/>
<path d="M165.545 19.5355C165.544 19.5225 165.544 19.5095 165.545 19.4965C165.554 19.4136 165.559 19.3303 165.559 19.247V2.64638C165.559 2.3488 165.499 2.05413 165.381 1.77921C165.264 1.50428 165.092 1.25447 164.875 1.04405C164.658 0.833631 164.401 0.666716 164.117 0.552837C163.834 0.438958 163.53 0.380351 163.223 0.380351C163.19 0.380351 163.159 0.380351 163.127 0.380351H144.458C144.423 0.380351 144.39 0.380351 144.355 0.380351C144.32 0.380351 144.292 0.380351 144.259 0.380351C143.952 0.380351 143.648 0.438958 143.365 0.552837C143.081 0.666716 142.824 0.833631 142.607 1.04405C142.39 1.25447 142.218 1.50428 142.101 1.77921C141.983 2.05413 141.923 2.3488 141.923 2.64638V19.247C141.923 19.247 141.923 19.247 141.923 19.2606C141.923 19.2741 141.923 19.2691 141.923 19.2724C141.923 19.4718 141.953 19.6701 142.01 19.8614L142.026 19.9209L142.047 19.9803C142.185 20.3713 142.431 20.7182 142.758 20.9833C143.085 21.2484 143.481 21.4216 143.902 21.4842C144.085 21.5204 144.271 21.5386 144.458 21.5385H163.027C163.212 21.5383 163.397 21.5207 163.578 21.4859C164.043 21.417 164.476 21.2136 164.819 20.9022C165.162 20.5909 165.401 20.1861 165.503 19.7409C165.503 19.7409 165.503 19.7257 165.503 19.7172C165.528 19.6544 165.536 19.5966 165.545 19.5355ZM146.595 4.91242H160.893V17.0064H146.595V4.91242Z" fill="white"/>
</svg>
